<?xml version="1.0" standalone="no"?>
<!DOCTYPE svg PUBLIC "-//W3C//DTD SVG 1.1//EN" "http://www.w3.org/Graphics/SVG/1.1/DTD/svg11.dtd" >
<svg xmlns="http://www.w3.org/2000/svg">
<metadata></metadata>
<defs>
<font id="universregular" horiz-adv-x="569" >
<font-face units-per-em="2048" ascent="1638" descent="-410" />
<missing-glyph horiz-adv-x="282" />
<glyph horiz-adv-x="2048" />
<glyph horiz-adv-x="2048" />
<glyph unicode="&#xd;" horiz-adv-x="2048" />
<glyph unicode=" "  horiz-adv-x="282" />
<glyph unicode="&#x09;" horiz-adv-x="282" />
<glyph unicode="&#xa0;" horiz-adv-x="282" />
<glyph unicode="!" horiz-adv-x="528" d="M188 1479h152l-16 -1121h-119zM197 0v156h135v-156h-135z" />
<glyph unicode="&#x22;" d="M119 1143v336h102v-336h-102zM348 1143v336h103v-336h-103z" />
<glyph unicode="#" horiz-adv-x="565" d="M-4 485v90h110l48 340h-101v91h113l63 473h103l-64 -473h103l63 473h103l-64 -473h96v-91h-108l-47 -340h98v-90h-111l-65 -485h-103l66 485h-102l-66 -485h-102l65 485h-98zM209 575h102l47 340h-102z" />
<glyph unicode="$" horiz-adv-x="565" d="M63 227v183h136v-166q0 -47 18.5 -75t65.5 -28q51 0 67.5 35t16.5 82v170q0 31 -7.5 62.5t-27.5 66.5l-217 375q-23 41 -33 79t-10 74v158q0 82 41 131t112 66v153h111v-153q76 -8 119 -52.5t43 -134.5v-155h-136v145q0 94 -73 94q-35 0 -58.5 -19.5t-23.5 -62.5v-161 q0 -29 7 -53.5t24 -51.5l215 -368q31 -53 40 -96.5t9 -96.5v-170q0 -92 -43 -148.5t-123 -70.5v-156h-111v156q-82 8 -123 57q-39 47 -39 131z" />
<glyph unicode="%" horiz-adv-x="983" d="M63 934v397q0 84 41 122t125 38t125 -38t41 -122v-397q0 -84 -41 -122t-125 -38t-125 38t-41 122zM174 920q2 -25 12.5 -44.5t42.5 -19.5q33 0 44.5 19.5t11.5 44.5v426q0 29 -11.5 46t-44.5 17t-44 -17.5t-11 -45.5v-426zM184 -12l512 1503h103l-512 -1503h-103z M588 147v398q0 84 41 122t125 38t125 -38t41 -122v-398q0 -84 -41 -121.5t-125 -37.5t-125 37.5t-41 121.5zM698 133q2 -25 12.5 -44t43.5 -19t44 19.5t11 43.5v426q0 29 -11.5 46.5t-43.5 17.5q-33 0 -44.5 -17.5t-11.5 -46.5v-426z" />
<glyph unicode="&#x26;" horiz-adv-x="757" d="M92 231v301q0 84 38 157t85 102l-45 83q-25 43 -38 108t-13 130v143q0 236 221 236q113 0 166 -46t53 -169v-164q0 -45 -6 -80t-18.5 -64.5t-33 -54t-48.5 -51.5l-91 -84l193 -450h4q4 16 6 39.5t2 48.5v317h111v-266q0 -88 -9.5 -151.5t-31.5 -120.5l86 -195h-135 l-29 74q-47 -49 -93 -67.5t-114 -18.5q-133 0 -196.5 68.5t-63.5 174.5zM219 266q0 -92 42 -134t114 -42q29 0 59.5 11.5t71.5 52.5l-240 534q-27 -35 -37 -86t-10 -115v-221zM246 1120q0 -45 2 -74.5t8 -55t17.5 -53.5t29.5 -67q137 113 137 222v172q0 49 -18.5 87 t-79.5 38q-53 0 -74.5 -36t-21.5 -89v-144z" />
<glyph unicode="'" horiz-adv-x="344" d="M121 1143v336h102v-336h-102z" />
<glyph unicode="(" horiz-adv-x="342" d="M63 641q0 270 40 491.5t98 370.5h102q-47 -174 -80 -399t-33 -463q0 -217 26 -443.5t85 -418.5h-102q-70 193 -103 417t-33 445z" />
<glyph unicode=")" horiz-adv-x="342" d="M39 -221q47 174 80 399t33 463q0 217 -26 443.5t-85 418.5h102q70 -193 103 -417t33 -445q0 -270 -40 -491.5t-98 -370.5h-102z" />
<glyph unicode="*" d="M37 1169v121l188 -28l-119 149l107 68l70 -187h4l69 187l107 -68l-119 -149l188 28v-121l-188 27l119 -149l-107 -64l-69 186h-4l-70 -186l-107 64l119 149z" />
<glyph unicode="+" horiz-adv-x="1228" d="M96 467v102h467v467h103v-467h467v-102h-467v-467h-103v467h-467z" />
<glyph unicode="," horiz-adv-x="282" d="M-8 -180l74 336h151l-115 -336h-110z" />
<glyph unicode="-" horiz-adv-x="339" d="M47 557v115h246v-115h-246z" />
<glyph unicode="." horiz-adv-x="282" d="M74 0v156h135v-156h-135z" />
<glyph unicode="/" d="M31 -12l397 1503h111l-398 -1503h-110z" />
<glyph unicode="0" horiz-adv-x="565" d="M72 207v1065q0 70 20.5 112.5t51 66.5t67.5 32t72 8t71.5 -8t67.5 -32t51.5 -67t20.5 -112v-1065q0 -70 -20.5 -113t-51.5 -66.5t-68 -31.5t-71 -8q-35 0 -72 8t-67.5 31.5t-51 66.5t-20.5 113zM199 193q0 -14 1 -32t9 -33t25.5 -26.5t48.5 -11.5t48 11.5t25.5 26.5 t9.5 32.5t1 32.5v1093q0 14 -1 31.5t-9.5 33t-26 27t-47.5 11.5q-31 0 -48.5 -11.5t-25.5 -27t-9 -33t-1 -31.5v-1093z" />
<glyph unicode="1" horiz-adv-x="565" d="M102 1233v137q37 16 82 50t72 59h117v-1479h-135v1325q-23 -20 -65 -48t-71 -44z" />
<glyph unicode="2" horiz-adv-x="565" d="M63 0v137l277 811q18 53 25.5 101.5t7.5 101.5v117q0 121 -82 121t-82 -121v-170h-127v172q0 111 51 166t164 55q102 0 152.5 -58.5t50.5 -160.5v-144q0 -41 -8.5 -95t-24.5 -99l-285 -819h320v-115h-439z" />
<glyph unicode="3" horiz-adv-x="565" d="M72 211v201h127v-230q0 -37 22.5 -64.5t61.5 -27.5t61.5 27.5t22.5 64.5v432q0 37 -22.5 65t-61.5 28h-76v114h76q39 0 61.5 28t22.5 64v383q0 37 -22.5 65t-61.5 28t-61.5 -28t-22.5 -65v-204h-127v176q0 100 49 161.5t162 61.5t162 -61.5t49 -161.5v-336 q0 -41 -6.5 -67.5t-19.5 -44t-32.5 -29t-48.5 -23.5v-4q55 -10 81 -40t26 -101v-412q0 -100 -49.5 -161.5t-161.5 -61.5q-113 0 -162 61.5t-49 161.5z" />
<glyph unicode="4" horiz-adv-x="565" d="M39 389v150l205 940h192v-987h107v-103h-107v-389h-135v389h-262zM141 492h160v831h-4z" />
<glyph unicode="5" horiz-adv-x="565" d="M82 211v201h127v-201q0 -57 17.5 -89t70.5 -32q51 0 68.5 32t17.5 89v498q0 57 -17.5 88.5t-66.5 31.5q-51 0 -68.5 -31.5t-17.5 -88.5v-60h-127v830h414v-115h-287v-500h4q20 31 52 49.5t71 18.5q78 0 124 -45t46 -146v-530q0 -100 -49 -161.5t-164 -61.5 q-117 0 -166 61.5t-49 161.5z" />
<glyph unicode="6" horiz-adv-x="565" d="M72 211v1057q0 100 49 161.5t162 61.5t162 -61.5t49 -161.5v-205h-127v237q0 37 -21.5 63t-60.5 26q-37 0 -61.5 -26t-24.5 -63v-442q29 23 61.5 38t73.5 15q72 0 116 -42t44 -136v-522q0 -100 -49.5 -161.5t-161.5 -61.5q-113 0 -162 61.5t-49 161.5zM199 178 q0 -37 24.5 -62.5t59.5 -25.5t59.5 25.5t24.5 62.5v543q0 37 -25 62.5t-59 25.5q-35 0 -59.5 -25.5t-24.5 -62.5v-543z" />
<glyph unicode="7" horiz-adv-x="565" d="M59 1364v115h447v-144l-221 -1335h-135l237 1364h-328z" />
<glyph unicode="8" horiz-adv-x="565" d="M72 211v412q0 72 25.5 101.5t80.5 39.5v4q-27 12 -47 23.5t-33.5 29t-19.5 44t-6 67.5v336q0 100 49 161.5t162 61.5t162 -61.5t49 -161.5v-336q0 -41 -6.5 -67.5t-19.5 -44t-32.5 -29t-48.5 -23.5v-4q55 -10 81 -40t26 -101v-412q0 -100 -49.5 -161.5t-161.5 -61.5 q-113 0 -162 61.5t-49 161.5zM199 182q0 -37 22.5 -64.5t61.5 -27.5t61.5 27.5t22.5 64.5v445q0 37 -22.5 64.5t-61.5 27.5t-61.5 -27.5t-22.5 -64.5v-445zM199 913q0 -37 22.5 -64.5t61.5 -27.5t61.5 28t22.5 64v383q0 37 -22.5 65t-61.5 28t-61.5 -28t-22.5 -65v-383z" />
<glyph unicode="9" horiz-adv-x="565" d="M72 211v205h127v-238q0 -37 21.5 -62.5t60.5 -25.5q37 0 61.5 25.5t24.5 62.5v443q-29 -23 -62 -38.5t-74 -15.5q-72 0 -115.5 42t-43.5 136v523q0 100 49 161.5t162 61.5t162 -61.5t49 -161.5v-1057q0 -100 -49.5 -161.5t-161.5 -61.5q-113 0 -162 61.5t-49 161.5z M199 758q0 -37 24.5 -62.5t59.5 -25.5t59.5 25.5t24.5 62.5v542q0 37 -25 63t-59 26q-35 0 -59.5 -26t-24.5 -63v-542z" />
<glyph unicode=":" horiz-adv-x="282" d="M74 0v156h135v-156h-135zM74 961v155h135v-155h-135z" />
<glyph unicode=";" horiz-adv-x="282" d="M-8 -180l74 336h151l-115 -336h-110zM74 961v155h135v-155h-135z" />
<glyph unicode="&#x3c;" horiz-adv-x="1228" d="M96 461v114l1037 474v-115l-910 -416l910 -416v-114z" />
<glyph unicode="=" horiz-adv-x="1228" d="M96 268v103h1037v-103h-1037zM96 666v102h1037v-102h-1037z" />
<glyph unicode="&#x3e;" horiz-adv-x="1228" d="M96 -12v114l910 416l-910 416v115l1037 -474v-114z" />
<glyph unicode="?" d="M86 1096v188q0 86 46 146.5t155 60.5t152.5 -47t43.5 -125v-211q0 -92 -30 -178l-70 -191q-16 -41 -20.5 -83t-4.5 -85v-213h-118v217q0 57 6 115t26 111l54 141q12 31 17 63.5t5 67.5v230q0 35 -18.5 54t-46.5 19q-33 0 -51.5 -26.5t-18.5 -61.5v-192h-127zM231 0v156 h136v-156h-136z" />
<glyph unicode="@" horiz-adv-x="1638" d="M68 745q0 154 62.5 290t170 237.5t249.5 160t302 58.5q150 0 281 -47t228 -130t153.5 -198t56.5 -250q0 -117 -44 -222t-114 -185t-152.5 -126t-160.5 -46q-66 0 -109 34.5t-47 106.5h-4q-59 -59 -130 -100t-159 -41q-63 0 -114.5 24.5t-87 67.5t-55 101.5t-19.5 125.5 q0 100 37 203.5t102.5 187.5t156.5 137.5t199 53.5q84 0 146.5 -41t101.5 -133l53 133h111l-209 -586q-27 -74 -26 -115q0 -29 14 -49t55 -20q63 0 127 47t114 120.5t80.5 161t30.5 166.5q0 121 -51 218.5t-135 167t-194.5 106.5t-231.5 37q-145 0 -270 -54.5t-217.5 -145.5 t-145.5 -213t-53 -257t55.5 -254t149.5 -208t219 -140t266 -51q80 0 161 19.5t154.5 55t138 88t113.5 115.5h109q-49 -86 -122 -153.5t-162 -115.5t-189 -73.5t-203 -25.5q-168 0 -313.5 59t-252 162.5t-166.5 242t-60 293.5zM485 598q0 -94 54.5 -151.5t146.5 -57.5 q80 0 147.5 52.5t116.5 127t78 159.5t29 153q0 86 -48 145t-141 59q-86 0 -156.5 -49t-120.5 -121.5t-78 -157.5t-28 -159z" />
<glyph unicode="A" horiz-adv-x="679" d="M31 0l217 1479h184l217 -1479h-135l-55 410h-238l-55 -410h-135zM236 524h208l-102 852h-4z" />
<glyph unicode="B" horiz-adv-x="681" d="M104 0v1479h252q49 0 87 -6.5t66 -23.5t42 -51t14 -89v-375q0 -86 -34.5 -121t-112.5 -39v-4q72 -4 112.5 -31.5t40.5 -105.5v-463q0 -55 -14 -89t-42 -51.5t-67.5 -23.5t-91.5 -6h-252zM240 115h82q53 0 83.5 17.5t30.5 82.5v406q0 53 -29.5 71.5t-76.5 18.5h-90v-596z M240 825h90q47 0 73.5 20.5t26.5 86.5v332q0 66 -30.5 83t-84.5 17h-75v-539z" />
<glyph unicode="C" d="M104 193v1093q0 94 52.5 149.5t158.5 55.5t158.5 -55.5t52.5 -149.5v-194h-135v190q0 94 -76 94t-75 -94v-1085q0 -94 75 -95q76 0 76 95v206h135v-210q0 -94 -52 -149.5t-159 -55.5q-106 0 -158.5 55t-52.5 150z" />
<glyph unicode="D" horiz-adv-x="681" d="M111 0v1479h231q70 0 114 -17.5t69.5 -48.5t35.5 -75t10 -99v-999q0 -55 -10 -99.5t-35.5 -75t-69.5 -48t-114 -17.5h-231zM246 115h71q68 0 93.5 24.5t25.5 89.5v1020q0 66 -25.5 90.5t-93.5 24.5h-71v-1249z" />
<glyph unicode="E" horiz-adv-x="530" d="M104 0v1479h359v-115h-223v-539h213v-114h-213v-596h223v-115h-359z" />
<glyph unicode="F" horiz-adv-x="530" d="M104 0v1479h359v-115h-223v-539h213v-114h-213v-711h-136z" />
<glyph unicode="G" horiz-adv-x="681" d="M111 248v1009q0 117 61 175.5t172 58.5t172.5 -58.5t61.5 -175.5v-165h-136v147q0 61 -19.5 99t-78.5 38t-78.5 -38t-19.5 -99v-989q0 -45 10 -74t25.5 -45t34 -22.5t36.5 -6.5q59 0 90 21v487h-108v115h244v-692q-113 -45 -213 -45q-141 0 -197.5 65.5t-56.5 194.5z" />
<glyph unicode="H" horiz-adv-x="681" d="M104 0v1479h136v-654h202v654h136v-1479h-136v711h-202v-711h-136z" />
<glyph unicode="I" horiz-adv-x="344" d="M104 0v1479h136v-1479h-136z" />
<glyph unicode="J" d="M43 193v213h135v-213q0 -47 22.5 -69t53.5 -22q33 0 54.5 20.5t21.5 67.5v1289h135v-1280q0 -111 -57.5 -161t-153.5 -50q-109 0 -160 53t-51 152z" />
<glyph unicode="K" d="M104 0v1479h136v-635h4l164 635h135l-195 -676l213 -803h-135l-182 741h-4v-741h-136z" />
<glyph unicode="L" horiz-adv-x="530" d="M104 0v1479h136v-1364h223v-115h-359z" />
<glyph unicode="M" horiz-adv-x="909" d="M92 0v1479h209l152 -1323h4l151 1323h209v-1479h-119v1364h-4l-155 -1364h-168l-156 1364h-4v-1364h-119z" />
<glyph unicode="N" horiz-adv-x="681" d="M98 0v1479h197l166 -1266h4v1266h119v-1479h-193l-170 1315h-4v-1315h-119z" />
<glyph unicode="O" horiz-adv-x="684" d="M104 238v1003q0 55 11.5 100t39 79t73.5 52.5t114 18.5t114 -18.5t73.5 -52.5t39 -79t11.5 -100v-1003q0 -55 -11.5 -100.5t-39 -79t-73.5 -52t-114 -18.5t-114 18.5t-73.5 52t-39 78.5t-11.5 101zM240 242q0 -61 18 -100.5t84 -39.5t84 39t18 101v995q0 61 -18 100 t-84 39t-84 -39t-18 -100v-995z" />
<glyph unicode="P" d="M104 0v1479h215q66 0 109 -11.5t69.5 -38t37 -69.5t10.5 -107v-362q0 -63 -10.5 -106.5t-37 -70t-69.5 -37.5t-109 -11h-79v-666h-136zM240 780h65q47 0 76 17.5t29 74.5v400q0 57 -29 74.5t-76 17.5h-65v-584z" />
<glyph unicode="Q" horiz-adv-x="684" d="M104 238v1003q0 55 11.5 100t39 79t72.5 52.5t113 18.5t112 -18.5t71.5 -52.5t38.5 -79t11 -100v-1003q0 -37 -6 -73t-26 -63l77 13h41v-115h-231q-8 -4 -18.5 -5t-20.5 -3t-22.5 -3t-26.5 -1q-68 0 -113 18.5t-72.5 52t-39 78.5t-11.5 101zM240 242q0 -61 18 -100.5 t82 -39.5q61 0 79.5 39t18.5 101v995q0 61 -18.5 100t-79.5 39q-63 0 -81.5 -39t-18.5 -100v-995z" />
<glyph unicode="R" horiz-adv-x="681" d="M104 0v1479h252q49 0 87 -6.5t66 -23.5t42 -51t14 -89v-375q0 -86 -34.5 -121t-112.5 -39v-4q72 -4 112.5 -31.5t40.5 -105.5v-633h-135v621q0 53 -29.5 71.5t-76.5 18.5h-90v-711h-136zM240 825h90q47 0 73.5 20.5t26.5 86.5v332q0 66 -30.5 83t-84.5 17h-75v-539z" />
<glyph unicode="S" d="M66 205v203h135v-195q0 -53 20.5 -82t65.5 -29q41 0 61.5 29t20.5 82v207q0 39 -8.5 70.5t-30.5 70.5l-199 346q-29 47 -43 89t-14 100v178q0 111 54 164t159 53q115 0 164 -52.5t49 -154.5v-188h-135v180q0 43 -15.5 71.5t-62.5 28.5t-62.5 -28.5t-15.5 -71.5v-156 q0 -35 7 -69.5t24 -63.5l215 -369q23 -39 36 -85t13 -95v-233q0 -104 -57.5 -160.5t-159.5 -56.5q-113 0 -167 52t-54 165z" />
<glyph unicode="T" horiz-adv-x="532" d="M47 1364v115h438v-115h-151v-1364h-135v1364h-152z" />
<glyph unicode="U" horiz-adv-x="684" d="M104 199v1280h136v-1237q0 -80 25.5 -110t76.5 -30q53 0 77.5 30t24.5 110v1237h136v-1280q0 -61 -21.5 -102.5t-55.5 -65t-77 -33.5t-86 -10t-85 10t-76 33.5t-54.5 64.5t-20.5 103z" />
<glyph unicode="V" d="M14 1479h136l133 -1344h4l133 1344h135l-172 -1479h-197z" />
<glyph unicode="W" horiz-adv-x="909" d="M25 1479h127l110 -1323h4l105 1323h168l112 -1323h4l103 1323h127l-150 -1479h-176l-102 1315h-4l-103 -1315h-176z" />
<glyph unicode="X" d="M16 0l193 743l-178 736h135l117 -600h4l116 600h136l-174 -736l188 -743h-135l-131 623h-4l-131 -623h-136z" />
<glyph unicode="Y" d="M18 1479h136l129 -672h4l129 672h135l-199 -836v-643h-135v643z" />
<glyph unicode="Z" horiz-adv-x="530" d="M49 0v139l305 1225h-286v115h413v-115l-305 -1249h303v-115h-430z" />
<glyph unicode="[" horiz-adv-x="342" d="M98 -221v1724h236v-90h-125v-1544h125v-90h-236z" />
<glyph unicode="\" d="M31 1491h110l398 -1503h-111z" />
<glyph unicode="]" horiz-adv-x="342" d="M8 -131h125v1544h-125v90h236v-1724h-236v90z" />
<glyph unicode="^" horiz-adv-x="1228" d="M88 551l471 928h111l471 -928h-119l-408 805l-407 -805h-119z" />
<glyph unicode="_" horiz-adv-x="1024" d="M0 -154h1024v-102h-1024v102z" />
<glyph unicode="`" horiz-adv-x="303" d="M0 1479h143l90 -222h-102z" />
<glyph unicode="a" d="M74 172v303q0 104 71.5 159.5t223.5 55.5v242q0 51 -17.5 72.5t-56.5 21.5q-53 0 -67.5 -29.5t-14.5 -78.5v-105h-127v131q0 86 62.5 135t150.5 49q92 0 144.5 -43t52.5 -151v-934h-119v59h-4q-27 -33 -58.5 -52t-89.5 -19q-74 0 -112.5 49t-38.5 135zM201 213 q0 -59 14 -91t66 -32q88 0 88 115v383q-25 0 -54.5 -5t-54 -19.5t-42 -38t-17.5 -58.5v-254z" />
<glyph unicode="b" d="M74 0v1479h127v-430h4q25 43 61 61q37 18 84 18q66 0 106 -49t40 -125v-749q0 -63 -14.5 -105.5t-37 -67t-52.5 -34.5t-60 -10q-57 0 -85 24.5t-50 57.5h-4v-70h-119zM201 213q0 -68 27.5 -95.5t66.5 -27.5q74 0 74 119v676q0 61 -18.5 95t-57.5 34q-41 0 -66.5 -35 t-25.5 -88v-678z" />
<glyph unicode="c" horiz-adv-x="530" d="M74 156v757q0 63 17.5 105.5t47 67t67.5 33.5t79 9q84 0 128 -44t44 -136v-186h-127v172q0 53 -14.5 72.5t-45.5 19.5q-70 0 -69 -92v-760q0 -43 14 -63.5t49 -20.5t50.5 22.5t15.5 61.5v180h127v-178q0 -92 -49.5 -140t-141.5 -48q-78 0 -135 40t-57 128z" />
<glyph unicode="d" d="M74 205v749q0 76 40 125t105 49q47 0 84 -18t62 -61h4v430h127v-1479h-119v70h-4q-23 -33 -50.5 -57.5t-84.5 -24.5q-31 0 -61 10t-52.5 34.5t-36.5 66.5t-14 106zM201 209q0 -119 73 -119q39 0 67 27.5t28 95.5v678q0 53 -26 88t-67 35q-39 0 -57 -34t-18 -95v-676z" />
<glyph unicode="e" d="M74 203v710q0 63 17.5 105.5t47 67t67.5 33.5t79 9t78.5 -9t67.5 -33.5t47.5 -66.5t17.5 -106v-387h-295v-323q0 -61 22.5 -87t61.5 -26t61.5 25.5t22.5 87.5v157h127v-157q0 -63 -17.5 -105.5t-47.5 -67t-67.5 -33.5t-78.5 -9t-79 9t-67.5 33.5t-47 66.5t-17.5 106z M201 641h168v272q0 61 -22.5 87t-61.5 26t-61.5 -25.5t-22.5 -87.5v-272z" />
<glyph unicode="f" horiz-adv-x="342" d="M31 1014v102h63v205q0 78 32 124t128 46h57v-102h-26q-29 0 -46.5 -17.5t-17.5 -66.5v-189h90v-102h-90v-1014h-127v1014h-63z" />
<glyph unicode="g" d="M74 244v708q0 74 41 125t118 51q47 0 84 -26.5t56 -59.5h4v74h119v-1110q0 -227 -222 -227q-33 0 -67.5 10t-62 31.5t-46 55.5t-18.5 81v41h127v-33q0 -53 23.5 -74.5t56.5 -21.5q41 0 61.5 28.5t20.5 69.5v152h-4q-25 -31 -59 -49.5t-75 -18.5q-29 0 -57.5 10.5t-51 33 t-35.5 59t-13 90.5zM201 254q0 -29 17.5 -58.5t60.5 -29.5q51 0 70.5 35t19.5 88v635q0 49 -31 69.5t-66 20.5q-72 0 -71 -111v-649z" />
<glyph unicode="h" d="M74 0v1479h127v-439h4q18 35 56 61.5t87 26.5q76 0 112 -50t36 -117v-961h-127v911q0 45 -18.5 74t-61.5 29q-45 0 -66.5 -34t-21.5 -69v-911h-127z" />
<glyph unicode="i" horiz-adv-x="303" d="M84 1323v156h135v-156h-135zM88 0v1116h127v-1116h-127z" />
<glyph unicode="j" horiz-adv-x="303" d="M2 -115q20 -4 31 -4q51 0 51 80v1155h127v-1196q0 -41 -14.5 -67.5t-36 -43t-47 -23.5t-47.5 -7q-39 0 -64 10v96zM80 1323v156h135v-156h-135z" />
<glyph unicode="k" d="M74 0v1479h127v-813h4l184 450h135l-211 -473l228 -643h-135l-201 600h-4v-600h-127z" />
<glyph unicode="l" horiz-adv-x="303" d="M88 0v1479h127v-1479h-127z" />
<glyph unicode="m" horiz-adv-x="831" d="M80 0v1116h119v-76h4q29 43 62.5 65.5t84.5 22.5q35 0 67 -17t52 -52q27 33 58.5 51t72.5 18q78 0 115 -50t37 -117v-961h-127v918q0 47 -14.5 71.5t-49.5 24.5q-39 0 -60.5 -31t-21.5 -72v-911h-127v918q0 47 -14 71.5t-49 24.5q-39 0 -60.5 -31t-21.5 -72v-911h-127z " />
<glyph unicode="n" d="M74 0v1116h119v-76h4q23 35 60.5 61.5t86.5 26.5q78 0 115 -50t37 -117v-961h-127v911q0 45 -18.5 74t-61.5 29q-45 0 -66.5 -34t-21.5 -69v-911h-127z" />
<glyph unicode="o" d="M74 203v710q0 63 17.5 105.5t47 67t67.5 33.5t79 9t78.5 -9t67.5 -33.5t47.5 -66.5t17.5 -106v-710q0 -63 -17.5 -105.5t-47.5 -67t-67.5 -33.5t-78.5 -9t-79 9t-67.5 33.5t-47 66.5t-17.5 106zM201 203q0 -61 22.5 -87t61.5 -26t61.5 25.5t22.5 87.5v710q0 61 -22.5 87 t-61.5 26t-61.5 -25.5t-22.5 -87.5v-710z" />
<glyph unicode="p" d="M74 -221v1337h119v-69h4q33 81 133 81h2q31 0 60.5 -10t52 -34.5t37 -66.5t14.5 -106v-749q0 -76 -40 -125t-106 -49q-49 0 -87 21.5t-58 60.5h-4v-291h-127zM201 225q0 -53 25.5 -88t66.5 -35q39 0 57.5 34t18.5 95v676q0 119 -74 119q-39 0 -66.5 -27.5t-27.5 -95.5 v-678z" />
<glyph unicode="q" d="M74 162v749q0 63 14 105.5t36.5 67t52.5 34.5t61 10q102 0 135 -81h4v69h119v-1337h-127v291h-4q-20 -39 -58.5 -60.5t-87.5 -21.5q-66 0 -105.5 49t-39.5 125zM201 231q0 -61 18.5 -95t56.5 -34q41 0 67 35t26 88v678q0 68 -28 95.5t-67 27.5q-74 0 -73 -119v-676z" />
<glyph unicode="r" horiz-adv-x="417" d="M74 0v1116h119v-78h4q29 45 69.5 67.5t100.5 22.5v-127q-92 0 -129 -37.5t-37 -125.5v-838h-127z" />
<glyph unicode="s" horiz-adv-x="530" d="M76 162v194h127v-172q0 -39 11 -66.5t52 -27.5q39 0 50.5 28.5t11.5 67.5v136q0 59 -47 122l-146 199q-29 37 -44 69.5t-15 80.5v143q0 92 56 142t142 50q51 0 85 -15t54.5 -38.5t30 -52.5t9.5 -53v-185h-119v166q0 76 -66 76q-39 0 -52 -23.5t-13 -56.5v-125 q0 -25 11 -50.5t36 -59.5l160 -224q23 -33 34 -58.5t11 -63.5v-189q0 -92 -49.5 -140t-141.5 -48q-78 0 -133 40t-55 134z" />
<glyph unicode="t" horiz-adv-x="342" d="M31 1014v102h63v150l127 49v-199h90v-102h-90v-848q0 -39 17.5 -51.5t46.5 -12.5h26v-102h-61q-80 0 -118 36t-38 101v877h-63z" />
<glyph unicode="u" d="M74 156v960h127v-911q0 -45 18.5 -74t61.5 -29q45 0 66.5 34t21.5 69v911h127v-1116h-119v76h-4q-23 -35 -61 -61.5t-87 -26.5q-78 0 -114.5 50t-36.5 118z" />
<glyph unicode="v" horiz-adv-x="528" d="M37 1116h119l106 -944h4l107 944h119l-134 -1116h-188z" />
<glyph unicode="w" horiz-adv-x="831" d="M37 1116h113l94 -944h4l82 944h172l82 -944h4l94 944h113l-119 -1116h-174l-84 969h-4l-84 -969h-174z" />
<glyph unicode="x" horiz-adv-x="528" d="M37 0l168 575l-148 541h123l82 -332h4l82 332h123l-147 -541l168 -575h-123l-103 393h-4l-102 -393h-123z" />
<glyph unicode="y" horiz-adv-x="530" d="M37 1116h127l90 -751h4l109 751h127l-213 -1337h-127l45 221z" />
<glyph unicode="z" horiz-adv-x="417" d="M37 0v147l213 867h-201v102h328v-110l-221 -904h225v-102h-344z" />
<glyph unicode="{" horiz-adv-x="342" d="M31 600v82q49 0 64.5 36t15.5 95v539q0 66 27.5 108.5t94.5 42.5h78v-82h-37q-29 0 -41 -18.5t-12 -48.5v-541q0 -78 -24.5 -117t-55.5 -53v-4q31 -14 55.5 -53t24.5 -117v-541q0 -31 12.5 -49t40.5 -18h37v-82h-78q-68 0 -95 43t-27 108v539q0 59 -15.5 95t-64.5 36z " />
<glyph unicode="|" horiz-adv-x="454" d="M176 -12v1503h103v-1503h-103z" />
<glyph unicode="}" horiz-adv-x="342" d="M31 -139h37q29 0 41 18.5t12 48.5v541q0 78 24.5 117t55.5 53v4q-31 14 -55.5 53t-24.5 117v541q0 31 -12.5 49t-40.5 18h-37v82h78q68 0 95 -43t27 -108v-539q0 -59 15.5 -95t64.5 -36v-82q-49 0 -64.5 -36t-15.5 -95v-539q0 -66 -27.5 -108.5t-94.5 -42.5h-78v82z" />
<glyph unicode="~" horiz-adv-x="1228" d="M141 463q37 78 101.5 127t154.5 49q57 0 117.5 -21.5t118.5 -48.5q59 -27 110.5 -48t90.5 -21q47 0 90 35.5t90 111.5l73 -74q-37 -78 -101 -127t-155 -49q-57 0 -117.5 21.5t-117.5 48.5q-59 27 -110.5 48.5t-90.5 21.5q-47 0 -90 -36t-90 -112z" />
<glyph unicode="&#xa1;" horiz-adv-x="528" d="M188 -209l17 1120h119l16 -1120h-152zM197 1114v156h135v-156h-135z" />
<glyph unicode="&#xa2;" horiz-adv-x="565" d="M90 217v758q0 102 43 148t103 59v168h102v-162q63 -8 102 -53q35 -47 35 -125v-187h-127v172q0 47 -18.5 69.5t-46.5 22.5q-29 0 -47.5 -22.5t-18.5 -69.5v-759q0 -84 66 -84q35 0 50 22.5t15 61.5v180h127v-178q0 -158 -137 -183v-166h-102v166q-63 10 -103 49 q-18 20 -30.5 49t-12.5 64z" />
<glyph unicode="&#xa3;" horiz-adv-x="565" d="M53 739v115h117v406q0 104 49 167.5t154 63.5q104 0 153 -51t49 -140v-122h-126v137q0 39 -21.5 56.5t-50.5 17.5q-31 0 -51.5 -19.5t-20.5 -73.5v-442h197v-115h-197v-624h254v-115h-502v115h113v624h-117z" />
<glyph unicode="&#xa4;" horiz-adv-x="565" d="M29 543l57 57q-47 59 -47 139t47 140l-57 57l57 57l55 -55q29 20 65 32.5t77 12.5t76.5 -12.5t64.5 -32.5l55 55l58 -57l-58 -57q47 -59 47 -140q0 -80 -47 -139l58 -57l-58 -58l-55 56q-29 -20 -64.5 -32.5t-76.5 -12.5t-77 12t-65 33l-55 -56zM141 739q0 -59 41 -100 t101 -41q59 0 100 41t41 100t-41 100.5t-100 41.5t-100.5 -41t-41.5 -101z" />
<glyph unicode="&#xa5;" horiz-adv-x="565" d="M16 1479h136l129 -672h4l129 672h135l-164 -691h150v-102h-175l-10 -43v-108h185v-103h-185v-432h-135v432h-184v103h184v108l-10 43h-174v102h149z" />
<glyph unicode="&#xa6;" horiz-adv-x="454" d="M176 -12v563h103v-563h-103zM176 928v563h103v-563h-103z" />
<glyph unicode="&#xa7;" d="M68 182v144h127v-107q0 -45 20.5 -87t67.5 -42q39 0 61.5 30t22.5 75v69q0 29 -21.5 63.5t-73.5 84.5l-116 112q-27 25 -53.5 71t-26.5 89v113q0 57 33.5 109t99.5 112q-47 47 -87 101.5t-40 119.5v82q0 74 51 122t156 48q111 0 159 -49t48 -142v-120h-127v98 q0 49 -18.5 80t-59.5 31q-45 0 -63.5 -30t-18.5 -69q0 -47 9 -74.5t32 -54.5l203 -233q43 -49 43 -115v-133q0 -20 -3.5 -38.5t-15.5 -39t-35.5 -47.5t-64.5 -61q37 -35 61.5 -61.5t39 -49.5t19.5 -45.5t5 -48.5v-101q0 -102 -56.5 -151t-160.5 -49q-111 0 -164 52t-53 142z M203 727q0 -41 22.5 -80t79.5 -88q41 49 52.5 90t11.5 68v65q0 18 -3.5 35t-12.5 36t-27.5 43t-51.5 54q-39 -43 -55 -75.5t-16 -79.5v-68z" />
<glyph unicode="&#xa8;" horiz-adv-x="303" d="M-14 1286v156h127v-156h-127zM190 1286v156h127v-156h-127z" />
<glyph unicode="&#xa9;" horiz-adv-x="1638" d="M68 739q0 156 59 293t160.5 238.5t239 161t292.5 59.5q156 0 293 -59.5t238.5 -161t161 -238.5t59.5 -293t-59.5 -293t-161 -238.5t-238.5 -160.5t-293 -59t-293 59t-238.5 160.5t-160.5 238.5t-59 293zM170 739q0 -135 51 -253.5t138 -205.5t206 -138.5t254 -51.5 t254 51.5t206 138.5t138 205.5t51 253.5t-51 254t-138 206t-206 138.5t-254 51.5t-254 -51.5t-206 -138.5t-138 -206t-51 -254zM387 741q0 102 31 189.5t89 150t141 98t190 35.5q147 0 254.5 -80.5t130.5 -232.5h-111q-18 88 -90 149.5t-182 61.5q-82 0 -146.5 -28.5 t-107.5 -79t-65.5 -118t-22.5 -143.5q0 -74 23.5 -142.5t68.5 -120.5t109.5 -83.5t144.5 -31.5q109 0 180.5 64.5t87.5 156.5h111q-16 -72 -51 -131.5t-84.5 -102.5t-111 -66.5t-132.5 -23.5q-104 0 -188.5 37t-144.5 101.5t-92 152.5t-32 188z" />
<glyph unicode="&#xaa;" horiz-adv-x="368" d="M47 915v160q0 88 41 118t139 36v139q0 57 -37 57q-29 0 -36 -18t-7 -47v-60h-94v80q0 51 41 81t99 30q61 0 95 -25.5t34 -91.5v-561h-76v35h-4q-16 -18 -37 -30.5t-60 -12.5q-47 0 -72.5 29.5t-25.5 80.5zM141 944q0 -35 8.5 -54.5t30.5 -19.5q20 0 33.5 17.5t13.5 52.5 v223q-41 -4 -63.5 -20.5t-22.5 -57.5v-141z" />
<glyph unicode="&#xab;" d="M43 618l117 431h110l-100 -431l100 -438h-102zM299 618l117 431h110l-100 -431l100 -438h-102z" />
<glyph unicode="&#xac;" horiz-adv-x="1228" d="M96 666v102h1037v-547h-103v445h-934z" />
<glyph unicode="&#xad;" horiz-adv-x="339" d="M47 557v115h246v-115h-246z" />
<glyph unicode="&#xae;" horiz-adv-x="1638" d="M68 739q0 156 59 293t160.5 238.5t239 161t292.5 59.5q156 0 293 -59.5t238.5 -161t161 -238.5t59.5 -293t-59.5 -293t-161 -238.5t-238.5 -160.5t-293 -59t-293 59t-238.5 160.5t-160.5 238.5t-59 293zM170 739q0 -135 51 -253.5t138 -205.5t206 -138.5t254 -51.5 t254 51.5t206 138.5t138 205.5t51 253.5t-51 254t-138 206t-206 138.5t-254 51.5t-254 -51.5t-206 -138.5t-138 -206t-51 -254zM539 270v893h342q154 0 222 -63.5t68 -184.5q0 -59 -17 -102t-48 -72.5t-71 -47t-85 -25.5l262 -398h-127l-254 398h-190v-398h-102zM641 758 h211q98 0 157.5 32.5t59.5 127.5q0 47 -18.5 76.5t-48 47t-67.5 24.5t-79 7h-215v-315z" />
<glyph unicode="&#xaf;" horiz-adv-x="303" d="M-31 1321v90h365v-90h-365z" />
<glyph unicode="&#xb0;" horiz-adv-x="819" d="M168 1249q0 49 19.5 93t52 77t76.5 52.5t94 19.5q49 0 93 -19.5t76.5 -52.5t52 -77t19.5 -93t-19.5 -93t-52 -76.5t-76.5 -52t-93 -19.5t-93.5 19.5t-77 52t-52 76.5t-19.5 93zM258 1249q0 -63 44 -107t108 -44q63 0 107 44t44 107t-44 107.5t-107 44.5t-107.5 -44.5 t-44.5 -107.5z" />
<glyph unicode="&#xb1;" horiz-adv-x="1228" d="M96 0v102h1037v-102h-1037zM96 559v103h467v374h103v-374h467v-103h-467v-375h-103v375h-467z" />
<glyph unicode="&#xb2;" horiz-adv-x="370" d="M43 596v82l158 438q23 59 26.5 98t3.5 72v57q0 74 -41 74t-40 -74v-88h-95v103q0 66 33 99.5t107 33.5q66 0 98.5 -36t32.5 -95v-86q0 -43 -7.5 -81t-31.5 -108l-148 -407h189v-82h-285z" />
<glyph unicode="&#xb3;" horiz-adv-x="370" d="M47 723v121h94v-109q0 -35 10.5 -54t34.5 -19q23 0 33 19t10 54v217q0 63 -67 64h-29v82h29q68 0 67 63v182q0 74 -43 74q-45 0 -45 -74v-92h-94v105q0 59 33 97t106 38q74 0 106 -38t32 -97v-230q0 -41 -17.5 -54t-46.5 -15v-4q29 0 46.5 -13.5t17.5 -54.5v-262 q0 -59 -32 -97t-106 -38t-106.5 38t-32.5 97z" />
<glyph unicode="&#xb4;" horiz-adv-x="303" d="M70 1257l90 222h143l-131 -222h-102z" />
<glyph unicode="&#xb6;" horiz-adv-x="819" d="M70 1118q0 78 17 144.5t56 114.5t99.5 75t146.5 27h268v-1479h-110v1376h-115v-1376h-110v756q-72 10 -120 44t-78 83t-42 110.5t-12 124.5z" />
<glyph unicode="&#xb7;" horiz-adv-x="282" d="M27 653q0 47 33.5 81t80.5 34t81 -34t34 -81t-34 -80.5t-81 -33.5t-80.5 33.5t-33.5 80.5z" />
<glyph unicode="&#xb8;" horiz-adv-x="303" d="M57 -225l11 47q23 -6 49 -6q16 0 43.5 8t27.5 35q0 20 -16 29.5t-27 9.5q-18 0 -28.5 -1t-20.5 -6l25 109h41l-17 -66q10 2 25.5 3.5t28.5 1.5q35 0 59.5 -24t24.5 -54q0 -12 -6.5 -27.5t-22.5 -31t-46 -25.5t-77 -10q-12 0 -32.5 2t-41.5 6z" />
<glyph unicode="&#xb9;" horiz-adv-x="370" d="M68 1327v90q23 10 52.5 30.5t45.5 35.5h76v-887h-103v784h-4q-6 -10 -28.5 -26.5t-38.5 -26.5z" />
<glyph unicode="&#xba;" horiz-adv-x="368" d="M43 934v428q0 76 42 102.5t99 26.5t99.5 -26.5t42.5 -102.5v-428q0 -76 -42 -102.5t-100 -26.5q-57 0 -99 26.5t-42 102.5zM137 938q0 -37 12.5 -52.5t34.5 -15.5q23 0 35 15.5t12 52.5v420q0 37 -12 52t-35 15t-35 -15t-12 -52v-420z" />
<glyph unicode="&#xbb;" d="M43 180l100 430l-100 439h102l125 -439l-116 -430h-111zM299 180l100 430l-100 439h102l125 -439l-116 -430h-111z" />
<glyph unicode="&#xbc;" horiz-adv-x="854" d="M47 1327v90q23 10 52.5 30.5t45.5 35.5h76v-887h-102v784h-4q-6 -10 -29 -26.5t-39 -26.5zM123 0l397 1479h103l-398 -1479h-102zM479 225v99l135 563h127v-588h66v-74h-66v-225h-94v225h-168zM549 299h98v473h-4z" />
<glyph unicode="&#xbd;" horiz-adv-x="854" d="M47 1327v90q23 10 52.5 30.5t45.5 35.5h76v-887h-102v784h-4q-6 -10 -29 -26.5t-39 -26.5zM123 0l397 1479h103l-398 -1479h-102zM522 0v82l158 438q23 59 27 98t4 72v58q0 74 -41 73q-41 0 -41 -73v-89h-94v103q0 66 32.5 99.5t106.5 33.5q66 0 98.5 -36t32.5 -95v-86 q0 -43 -7 -81t-32 -108l-148 -407h189v-82h-285z" />
<glyph unicode="&#xbe;" horiz-adv-x="854" d="M47 723v121h94v-109q0 -35 10.5 -54t34.5 -19q23 0 33 19t10 54v217q0 63 -67 64h-29v82h29q68 0 67 63v182q0 74 -43 74q-45 0 -45 -74v-92h-94v105q0 59 33 97t106 38q74 0 106 -38t32 -97v-230q0 -41 -17.5 -54t-46.5 -15v-4q29 0 46.5 -13.5t17.5 -54.5v-262 q0 -59 -32 -97t-106 -38t-106.5 38t-32.5 97zM182 0l398 1479h102l-397 -1479h-103zM479 225v99l135 563h127v-588h66v-74h-66v-225h-94v225h-168zM549 299h98v473h-4z" />
<glyph unicode="&#xbf;" d="M86 -49v211q0 92 31 178l69 190q16 41 20.5 83t4.5 85v213h119v-217q0 -57 -6.5 -114.5t-26.5 -110.5l-53 -141q-12 -31 -17.5 -64t-5.5 -67v-230q0 -35 18.5 -54t47.5 -19q33 0 51 26.5t18 61.5v192h127v-188q0 -86 -46 -146.5t-154 -60.5q-109 0 -153 47t-44 125z M203 1114v156h135v-156h-135z" />
<glyph unicode="&#xc0;" horiz-adv-x="679" d="M31 0l217 1479h184l217 -1479h-135l-55 410h-238l-55 -410h-135zM201 1764h143l90 -222h-102zM236 524h208l-102 852h-4z" />
<glyph unicode="&#xc1;" horiz-adv-x="679" d="M31 0l217 1479h184l217 -1479h-135l-55 410h-238l-55 -410h-135zM236 524h208l-102 852h-4zM271 1542l90 222h143l-131 -222h-102z" />
<glyph unicode="&#xc2;" horiz-adv-x="679" d="M31 0l217 1479h184l217 -1479h-135l-55 410h-238l-55 -410h-135zM174 1542l90 222h177l90 -222h-119l-59 148l-60 -148h-119zM236 524h208l-102 852h-4z" />
<glyph unicode="&#xc3;" horiz-adv-x="679" d="M31 0l217 1479h184l217 -1479h-135l-55 410h-238l-55 -410h-135zM168 1579q0 49 25.5 93.5t95.5 44.5q41 0 73 -18.5t54 -18.5q16 0 32.5 12t18.5 35h70q0 -49 -25.5 -93t-95.5 -44q-41 0 -72.5 18t-54.5 18q-16 0 -32.5 -12t-18.5 -35h-70zM236 524h208l-102 852h-4z " />
<glyph unicode="&#xc4;" horiz-adv-x="679" d="M31 0l217 1479h184l217 -1479h-135l-55 410h-238l-55 -410h-135zM187 1571v156h127v-156h-127zM236 524h208l-102 852h-4zM391 1571v156h127v-156h-127z" />
<glyph unicode="&#xc5;" horiz-adv-x="679" d="M31 0l217 1479h184l217 -1479h-135l-55 410h-238l-55 -410h-135zM215 1655q0 57 40 97t98 40q57 0 97 -40t40 -97t-40 -97t-97 -40t-97.5 40t-40.5 97zM236 524h208l-102 852h-4zM285 1655q0 -29 19.5 -48.5t48.5 -19.5t48 19.5t19 48.5t-19.5 48t-47.5 19 q-29 0 -48.5 -19.5t-19.5 -47.5z" />
<glyph unicode="&#xc6;" horiz-adv-x="833" d="M31 0l256 1479h499v-115h-260l39 -539h211v-114h-205l43 -596h172v-115h-301l-28 410h-230l-69 -410h-127zM246 524h205l-56 852h-4z" />
<glyph unicode="&#xc7;" d="M104 193v1093q0 94 52.5 149.5t158.5 55.5t158.5 -55.5t52.5 -149.5v-194h-135v190q0 94 -76 94t-75 -94v-1085q0 -94 75 -95q76 0 76 95v206h135v-210q0 -94 -52 -149.5t-159 -55.5l-14 -54q10 2 25.5 3.5t27.5 1.5q35 0 59.5 -24t24.5 -54q0 -12 -6 -27.5t-22.5 -31 t-46 -25.5t-76.5 -10q-12 0 -33 2t-41 6l10 47q23 -6 49 -6q16 0 44 8t28 35q0 20 -16.5 29.5t-26.5 9.5q-18 0 -28.5 -1t-20.5 -6l22 101q-86 10 -128 62t-42 139z" />
<glyph unicode="&#xc8;" horiz-adv-x="530" d="M104 0v1479h359v-115h-223v-539h213v-114h-213v-596h223v-115h-359zM139 1764h143l90 -222h-102z" />
<glyph unicode="&#xc9;" horiz-adv-x="530" d="M104 0v1479h359v-115h-223v-539h213v-114h-213v-596h223v-115h-359zM209 1542l90 222h143l-131 -222h-102z" />
<glyph unicode="&#xca;" horiz-adv-x="530" d="M104 0v1479h359v-115h-223v-539h213v-114h-213v-596h223v-115h-359zM112 1542l90 222h177l90 -222h-119l-59 148l-60 -148h-119z" />
<glyph unicode="&#xcb;" horiz-adv-x="530" d="M104 0v1479h359v-115h-223v-539h213v-114h-213v-596h223v-115h-359zM125 1571v156h127v-156h-127zM329 1571v156h127v-156h-127z" />
<glyph unicode="&#xcc;" horiz-adv-x="344" d="M20 1764h143l90 -222h-102zM104 0v1479h136v-1479h-136z" />
<glyph unicode="&#xcd;" horiz-adv-x="344" d="M90 1542l90 222h143l-131 -222h-102zM104 0v1479h136v-1479h-136z" />
<glyph unicode="&#xce;" horiz-adv-x="344" d="M-7 1542l90 222h177l90 -222h-119l-59 148l-60 -148h-119zM104 0v1479h136v-1479h-136z" />
<glyph unicode="&#xcf;" horiz-adv-x="344" d="M6 1571v156h127v-156h-127zM104 0v1479h136v-1479h-136zM210 1571v156h127v-156h-127z" />
<glyph unicode="&#xd0;" horiz-adv-x="681" d="M51 711v114h66v654h231q70 0 114 -17.5t69.5 -48.5t36 -75t10.5 -99v-999q0 -55 -10.5 -99.5t-36 -75t-69.5 -48t-114 -17.5h-231v711h-66zM252 115h72q68 0 93 24.5t25 89.5v1020q0 66 -25.5 90.5t-92.5 24.5h-72v-539h82v-114h-82v-596z" />
<glyph unicode="&#xd1;" horiz-adv-x="681" d="M98 0v1479h197l166 -1266h4v1266h119v-1479h-193l-170 1315h-4v-1315h-119zM157 1579q0 49 25.5 93.5t95.5 44.5q41 0 73 -18.5t54 -18.5q16 0 32.5 12t18.5 35h70q0 -49 -25.5 -93t-95.5 -44q-41 0 -72.5 18t-54.5 18q-16 0 -32.5 -12t-18.5 -35h-70z" />
<glyph unicode="&#xd2;" horiz-adv-x="684" d="M104 238v1003q0 55 11.5 100t39 79t73.5 52.5t114 18.5t114 -18.5t73.5 -52.5t39 -79t11.5 -100v-1003q0 -55 -11.5 -100.5t-39 -79t-73.5 -52t-114 -18.5t-114 18.5t-73.5 52t-39 78.5t-11.5 101zM190 1764h143l90 -222h-102zM240 242q0 -61 18 -100.5t84 -39.5t84 39 t18 101v995q0 61 -18 100t-84 39t-84 -39t-18 -100v-995z" />
<glyph unicode="&#xd3;" horiz-adv-x="684" d="M104 238v1003q0 55 11.5 100t39 79t73.5 52.5t114 18.5t114 -18.5t73.5 -52.5t39 -79t11.5 -100v-1003q0 -55 -11.5 -100.5t-39 -79t-73.5 -52t-114 -18.5t-114 18.5t-73.5 52t-39 78.5t-11.5 101zM240 242q0 -61 18 -100.5t84 -39.5t84 39t18 101v995q0 61 -18 100 t-84 39t-84 -39t-18 -100v-995zM260 1542l90 222h143l-131 -222h-102z" />
<glyph unicode="&#xd4;" horiz-adv-x="684" d="M104 238v1003q0 55 11.5 100t39 79t73.5 52.5t114 18.5t114 -18.5t73.5 -52.5t39 -79t11.5 -100v-1003q0 -55 -11.5 -100.5t-39 -79t-73.5 -52t-114 -18.5t-114 18.5t-73.5 52t-39 78.5t-11.5 101zM163 1542l90 222h177l90 -222h-119l-59 148l-60 -148h-119zM240 242 q0 -61 18 -100.5t84 -39.5t84 39t18 101v995q0 61 -18 100t-84 39t-84 -39t-18 -100v-995z" />
<glyph unicode="&#xd5;" horiz-adv-x="684" d="M104 238v1003q0 55 11.5 100t39 79t73.5 52.5t114 18.5t114 -18.5t73.5 -52.5t39 -79t11.5 -100v-1003q0 -55 -11.5 -100.5t-39 -79t-73.5 -52t-114 -18.5t-114 18.5t-73.5 52t-39 78.5t-11.5 101zM157 1579q0 49 25.5 93.5t95.5 44.5q41 0 73 -18.5t54 -18.5 q16 0 32.5 12t18.5 35h70q0 -49 -25.5 -93t-95.5 -44q-41 0 -72.5 18t-54.5 18q-16 0 -32.5 -12t-18.5 -35h-70zM240 242q0 -61 18 -100.5t84 -39.5t84 39t18 101v995q0 61 -18 100t-84 39t-84 -39t-18 -100v-995z" />
<glyph unicode="&#xd6;" horiz-adv-x="684" d="M104 238v1003q0 55 11.5 100t39 79t73.5 52.5t114 18.5t114 -18.5t73.5 -52.5t39 -79t11.5 -100v-1003q0 -55 -11.5 -100.5t-39 -79t-73.5 -52t-114 -18.5t-114 18.5t-73.5 52t-39 78.5t-11.5 101zM176 1571v156h127v-156h-127zM240 242q0 -61 18 -100.5t84 -39.5t84 39 t18 101v995q0 61 -18 100t-84 39t-84 -39t-18 -100v-995zM380 1571v156h127v-156h-127z" />
<glyph unicode="&#xd7;" horiz-adv-x="1228" d="M152 129l389 389l-389 389l73 74l387 -391l392 391l73 -74l-391 -389l391 -389l-73 -74l-392 391l-387 -391z" />
<glyph unicode="&#xd8;" horiz-adv-x="684" d="M96 -59l39 147q-16 33 -23.5 70t-7.5 80v1003q0 55 11.5 100t39 79t73.5 52.5t114 18.5q98 0 154 -39l28 107l64 -21l-39 -149q16 -31 23.5 -68t7.5 -80v-1003q0 -55 -11.5 -100.5t-39 -79t-73.5 -52t-114 -18.5q-100 0 -154 41l-28 -109zM240 215q0 -43 21.5 -78 t80.5 -35q66 0 84 39t18 101v753h-4zM240 481h4l200 772q-2 55 -22.5 89t-79.5 34q-66 0 -84 -39t-18 -100v-756z" />
<glyph unicode="&#xd9;" horiz-adv-x="684" d="M104 199v1280h136v-1237q0 -80 25.5 -110t76.5 -30q53 0 77.5 30t24.5 110v1237h136v-1280q0 -61 -21.5 -102.5t-55.5 -65t-77 -33.5t-86 -10t-85 10t-76 33.5t-54.5 64.5t-20.5 103zM190 1764h143l90 -222h-102z" />
<glyph unicode="&#xda;" horiz-adv-x="684" d="M104 199v1280h136v-1237q0 -80 25.5 -110t76.5 -30q53 0 77.5 30t24.5 110v1237h136v-1280q0 -61 -21.5 -102.5t-55.5 -65t-77 -33.5t-86 -10t-85 10t-76 33.5t-54.5 64.5t-20.5 103zM260 1542l90 222h143l-131 -222h-102z" />
<glyph unicode="&#xdb;" horiz-adv-x="684" d="M104 199v1280h136v-1237q0 -80 25.5 -110t76.5 -30q53 0 77.5 30t24.5 110v1237h136v-1280q0 -61 -21.5 -102.5t-55.5 -65t-77 -33.5t-86 -10t-85 10t-76 33.5t-54.5 64.5t-20.5 103zM163 1542l90 222h177l90 -222h-119l-59 148l-60 -148h-119z" />
<glyph unicode="&#xdc;" horiz-adv-x="684" d="M104 199v1280h136v-1237q0 -80 25.5 -110t76.5 -30q53 0 77.5 30t24.5 110v1237h136v-1280q0 -61 -21.5 -102.5t-55.5 -65t-77 -33.5t-86 -10t-85 10t-76 33.5t-54.5 64.5t-20.5 103zM176 1571v156h127v-156h-127zM380 1571v156h127v-156h-127z" />
<glyph unicode="&#xdd;" d="M18 1479h136l129 -672h4l129 672h135l-199 -836v-643h-135v643zM203 1542l90 222h143l-131 -222h-102z" />
<glyph unicode="&#xde;" d="M104 0v1479h136v-254h79q66 0 109 -11.5t69.5 -38t37 -69.5t10.5 -107v-362q0 -63 -10.5 -106.5t-37 -70t-69.5 -37.5t-109 -11h-79v-412h-136zM240 526h65q47 0 76 17.5t29 74.5v400q0 57 -29 74.5t-76 17.5h-65v-584z" />
<glyph unicode="&#xdf;" horiz-adv-x="757" d="M74 0v1188q0 145 56 224t208 79q119 0 174 -63.5t55 -159.5v-244q-49 -20 -93 -50t-44 -79q0 -35 14.5 -59.5t30.5 -53.5l160 -256q29 -45 39 -85t10 -93v-170q0 -190 -207 -190q-184 0 -184 188v156h127v-156q0 -45 17.5 -65.5t45.5 -20.5q41 0 57.5 25.5t16.5 56.5v176 q0 39 -9 63.5t-18 39.5l-180 297q-25 41 -36 72.5t-11 82.5q0 33 13.5 60.5t34 49t45 38t44.5 28.5v185q0 57 -23.5 91t-88.5 34q-39 0 -64.5 -13.5t-39 -35t-18.5 -49t-5 -56.5v-1235h-127z" />
<glyph unicode="&#xe0;" d="M74 172v303q0 104 71.5 159.5t223.5 55.5v242q0 51 -17.5 72.5t-56.5 21.5q-53 0 -67.5 -29.5t-14.5 -78.5v-105h-127v131q0 86 62.5 135t150.5 49q92 0 144.5 -43t52.5 -151v-934h-119v59h-4q-27 -33 -58.5 -52t-89.5 -19q-74 0 -112.5 49t-38.5 135zM145 1479h143 l90 -222h-102zM201 213q0 -59 14 -91t66 -32q88 0 88 115v383q-25 0 -54.5 -5t-54 -19.5t-42 -38t-17.5 -58.5v-254z" />
<glyph unicode="&#xe1;" d="M74 172v303q0 104 71.5 159.5t223.5 55.5v242q0 51 -17.5 72.5t-56.5 21.5q-53 0 -67.5 -29.5t-14.5 -78.5v-105h-127v131q0 86 62.5 135t150.5 49q92 0 144.5 -43t52.5 -151v-934h-119v59h-4q-27 -33 -58.5 -52t-89.5 -19q-74 0 -112.5 49t-38.5 135zM201 213 q0 -59 14 -91t66 -32q88 0 88 115v383q-25 0 -54.5 -5t-54 -19.5t-42 -38t-17.5 -58.5v-254zM215 1257l90 222h143l-131 -222h-102z" />
<glyph unicode="&#xe2;" d="M74 172v303q0 104 71.5 159.5t223.5 55.5v242q0 51 -17.5 72.5t-56.5 21.5q-53 0 -67.5 -29.5t-14.5 -78.5v-105h-127v131q0 86 62.5 135t150.5 49q92 0 144.5 -43t52.5 -151v-934h-119v59h-4q-27 -33 -58.5 -52t-89.5 -19q-74 0 -112.5 49t-38.5 135zM118 1257l90 222 h177l90 -222h-119l-59 148l-60 -148h-119zM201 213q0 -59 14 -91t66 -32q88 0 88 115v383q-25 0 -54.5 -5t-54 -19.5t-42 -38t-17.5 -58.5v-254z" />
<glyph unicode="&#xe3;" d="M74 172v303q0 104 71.5 159.5t223.5 55.5v242q0 51 -17.5 72.5t-56.5 21.5q-53 0 -67.5 -29.5t-14.5 -78.5v-105h-127v131q0 86 62.5 135t150.5 49q92 0 144.5 -43t52.5 -151v-934h-119v59h-4q-27 -33 -58.5 -52t-89.5 -19q-74 0 -112.5 49t-38.5 135zM112 1294 q0 49 25.5 93.5t95.5 44.5q41 0 73 -18.5t54 -18.5q16 0 32.5 12t18.5 35h70q0 -49 -25.5 -93t-95.5 -44q-41 0 -72.5 18t-54.5 18q-16 0 -32.5 -12t-18.5 -35h-70zM201 213q0 -59 14 -91t66 -32q88 0 88 115v383q-25 0 -54.5 -5t-54 -19.5t-42 -38t-17.5 -58.5v-254z" />
<glyph unicode="&#xe4;" d="M74 172v303q0 104 71.5 159.5t223.5 55.5v242q0 51 -17.5 72.5t-56.5 21.5q-53 0 -67.5 -29.5t-14.5 -78.5v-105h-127v131q0 86 62.5 135t150.5 49q92 0 144.5 -43t52.5 -151v-934h-119v59h-4q-27 -33 -58.5 -52t-89.5 -19q-74 0 -112.5 49t-38.5 135zM131 1286v156h127 v-156h-127zM201 213q0 -59 14 -91t66 -32q88 0 88 115v383q-25 0 -54.5 -5t-54 -19.5t-42 -38t-17.5 -58.5v-254zM335 1286v156h127v-156h-127z" />
<glyph unicode="&#xe5;" d="M74 172v303q0 104 71.5 159.5t223.5 55.5v242q0 51 -17.5 72.5t-56.5 21.5q-53 0 -67.5 -29.5t-14.5 -78.5v-105h-127v131q0 86 62.5 135t150.5 49q92 0 144.5 -43t52.5 -151v-934h-119v59h-4q-27 -33 -58.5 -52t-89.5 -19q-74 0 -112.5 49t-38.5 135zM159 1358 q0 57 40 97t98 40q57 0 97 -40t40 -97t-40 -97t-97 -40t-97.5 40t-40.5 97zM201 213q0 -59 14 -91t66 -32q88 0 88 115v383q-25 0 -54.5 -5t-54 -19.5t-42 -38t-17.5 -58.5v-254zM229 1358q0 -29 19.5 -48.5t48.5 -19.5t48 19.5t19 48.5t-19.5 48t-47.5 19 q-29 0 -48.5 -19.5t-19.5 -47.5z" />
<glyph unicode="&#xe6;" horiz-adv-x="833" d="M78 176v248q0 113 64.5 165t168.5 52h43v303q0 35 -20.5 58.5t-52.5 23.5q-33 0 -53.5 -23.5t-20.5 -58.5v-153h-127v149q0 92 49 140t137 48q53 0 90 -21.5t66 -57.5q23 29 61.5 54t98.5 25q35 0 65.5 -8t55 -30.5t39 -65.5t14.5 -111v-387h-275v-323q0 -61 17.5 -87 t56.5 -26q31 0 52.5 25.5t21.5 87.5v157h127v-157q0 -63 -17.5 -105.5t-46 -67t-64.5 -33.5t-73 -9q-49 0 -80 21.5t-53 60.5q-35 -47 -64.5 -64.5t-89.5 -17.5q-82 0 -136 41t-54 147zM205 172q0 -41 20.5 -61.5t55.5 -20.5q33 0 53 20.5t20 61.5v354q-82 0 -115.5 -19.5 t-33.5 -90.5v-244zM481 641h148v272q0 61 -17.5 87t-56.5 26t-56.5 -25.5t-17.5 -87.5v-272z" />
<glyph unicode="&#xe7;" horiz-adv-x="530" d="M74 156v757q0 63 17.5 105.5t47 67t67.5 33.5t79 9q84 0 128 -44t44 -136v-186h-127v172q0 53 -14.5 72.5t-45.5 19.5q-70 0 -69 -92v-760q0 -43 14 -63.5t49 -20.5t50.5 22.5t15.5 61.5v180h127v-178q0 -92 -49.5 -140t-141.5 -48l-14 -54q10 2 25.5 3.5t27.5 1.5 q35 0 59.5 -24t24.5 -54q0 -12 -6 -27.5t-22.5 -31t-46 -25.5t-76.5 -10q-12 0 -33 2t-41 6l10 47q23 -6 49 -6q16 0 44 8t28 35q0 20 -16.5 29.5t-26.5 9.5q-18 0 -28.5 -1t-20.5 -6l22 99q-63 10 -107 50t-44 116z" />
<glyph unicode="&#xe8;" d="M74 203v710q0 63 17.5 105.5t47 67t67.5 33.5t79 9t78.5 -9t67.5 -33.5t47.5 -66.5t17.5 -106v-387h-295v-323q0 -61 22.5 -87t61.5 -26t61.5 25.5t22.5 87.5v157h127v-157q0 -63 -17.5 -105.5t-47.5 -67t-67.5 -33.5t-78.5 -9t-79 9t-67.5 33.5t-47 66.5t-17.5 106z M133 1479h143l90 -222h-102zM201 641h168v272q0 61 -22.5 87t-61.5 26t-61.5 -25.5t-22.5 -87.5v-272z" />
<glyph unicode="&#xe9;" d="M74 203v710q0 63 17.5 105.5t47 67t67.5 33.5t79 9t78.5 -9t67.5 -33.5t47.5 -66.5t17.5 -106v-387h-295v-323q0 -61 22.5 -87t61.5 -26t61.5 25.5t22.5 87.5v157h127v-157q0 -63 -17.5 -105.5t-47.5 -67t-67.5 -33.5t-78.5 -9t-79 9t-67.5 33.5t-47 66.5t-17.5 106z M201 641h168v272q0 61 -22.5 87t-61.5 26t-61.5 -25.5t-22.5 -87.5v-272zM203 1257l90 222h143l-131 -222h-102z" />
<glyph unicode="&#xea;" d="M74 203v710q0 63 17.5 105.5t47 67t67.5 33.5t79 9t78.5 -9t67.5 -33.5t47.5 -66.5t17.5 -106v-387h-295v-323q0 -61 22.5 -87t61.5 -26t61.5 25.5t22.5 87.5v157h127v-157q0 -63 -17.5 -105.5t-47.5 -67t-67.5 -33.5t-78.5 -9t-79 9t-67.5 33.5t-47 66.5t-17.5 106z M106 1257l90 222h177l90 -222h-119l-59 148l-60 -148h-119zM201 641h168v272q0 61 -22.5 87t-61.5 26t-61.5 -25.5t-22.5 -87.5v-272z" />
<glyph unicode="&#xeb;" d="M74 203v710q0 63 17.5 105.5t47 67t67.5 33.5t79 9t78.5 -9t67.5 -33.5t47.5 -66.5t17.5 -106v-387h-295v-323q0 -61 22.5 -87t61.5 -26t61.5 25.5t22.5 87.5v157h127v-157q0 -63 -17.5 -105.5t-47.5 -67t-67.5 -33.5t-78.5 -9t-79 9t-67.5 33.5t-47 66.5t-17.5 106z M119 1286v156h127v-156h-127zM201 641h168v272q0 61 -22.5 87t-61.5 26t-61.5 -25.5t-22.5 -87.5v-272zM323 1286v156h127v-156h-127z" />
<glyph unicode="&#xec;" horiz-adv-x="303" d="M0 1479h143l90 -222h-102zM88 0v1116h127v-1116h-127z" />
<glyph unicode="&#xed;" horiz-adv-x="303" d="M70 1257l90 222h143l-131 -222h-102zM88 0v1116h127v-1116h-127z" />
<glyph unicode="&#xee;" horiz-adv-x="303" d="M-27 1257l90 222h177l90 -222h-119l-59 148l-60 -148h-119zM88 0v1116h127v-1116h-127z" />
<glyph unicode="&#xef;" horiz-adv-x="303" d="M-14 1286v156h127v-156h-127zM88 0v1116h127v-1116h-127zM190 1286v156h127v-156h-127z" />
<glyph unicode="&#xf0;" d="M74 203v710q0 63 17.5 105.5t47 67t67.5 33.5t79 9q18 0 39.5 -7t33.5 -25h4q-2 29 -10 60.5t-20.5 60t-25.5 52t-25 36.5l-136 -99l-51 58l135 98q-23 23 -49 46.5t-55 45.5l82 64q61 -47 106 -95l129 97l54 -60l-131 -96q43 -51 69.5 -113.5t39.5 -131t17.5 -138.5 t4.5 -135v-643q0 -63 -17.5 -105.5t-47.5 -67t-67.5 -33.5t-78.5 -9t-79 9t-67.5 33.5t-47 66.5t-17.5 106zM201 203q0 -61 22.5 -87t61.5 -26t61.5 25.5t22.5 87.5v710q0 61 -22.5 87t-61.5 26t-61.5 -25.5t-22.5 -87.5v-710z" />
<glyph unicode="&#xf1;" d="M74 0v1116h119v-76h4q23 35 60.5 61.5t86.5 26.5q78 0 115 -50t37 -117v-961h-127v911q0 45 -18.5 74t-61.5 29q-45 0 -66.5 -34t-21.5 -69v-911h-127zM100 1294q0 49 25.5 93.5t95.5 44.5q41 0 73 -18.5t54 -18.5q16 0 32.5 12t18.5 35h70q0 -49 -25.5 -93t-95.5 -44 q-41 0 -72.5 18t-54.5 18q-16 0 -32.5 -12t-18.5 -35h-70z" />
<glyph unicode="&#xf2;" d="M74 203v710q0 63 17.5 105.5t47 67t67.5 33.5t79 9t78.5 -9t67.5 -33.5t47.5 -66.5t17.5 -106v-710q0 -63 -17.5 -105.5t-47.5 -67t-67.5 -33.5t-78.5 -9t-79 9t-67.5 33.5t-47 66.5t-17.5 106zM133 1479h143l90 -222h-102zM201 203q0 -61 22.5 -87t61.5 -26t61.5 25.5 t22.5 87.5v710q0 61 -22.5 87t-61.5 26t-61.5 -25.5t-22.5 -87.5v-710z" />
<glyph unicode="&#xf3;" d="M74 203v710q0 63 17.5 105.5t47 67t67.5 33.5t79 9t78.5 -9t67.5 -33.5t47.5 -66.5t17.5 -106v-710q0 -63 -17.5 -105.5t-47.5 -67t-67.5 -33.5t-78.5 -9t-79 9t-67.5 33.5t-47 66.5t-17.5 106zM201 203q0 -61 22.5 -87t61.5 -26t61.5 25.5t22.5 87.5v710q0 61 -22.5 87 t-61.5 26t-61.5 -25.5t-22.5 -87.5v-710zM203 1257l90 222h143l-131 -222h-102z" />
<glyph unicode="&#xf4;" d="M74 203v710q0 63 17.5 105.5t47 67t67.5 33.5t79 9t78.5 -9t67.5 -33.5t47.5 -66.5t17.5 -106v-710q0 -63 -17.5 -105.5t-47.5 -67t-67.5 -33.5t-78.5 -9t-79 9t-67.5 33.5t-47 66.5t-17.5 106zM106 1257l90 222h177l90 -222h-119l-59 148l-60 -148h-119zM201 203 q0 -61 22.5 -87t61.5 -26t61.5 25.5t22.5 87.5v710q0 61 -22.5 87t-61.5 26t-61.5 -25.5t-22.5 -87.5v-710z" />
<glyph unicode="&#xf5;" d="M74 203v710q0 63 17.5 105.5t47 67t67.5 33.5t79 9t78.5 -9t67.5 -33.5t47.5 -66.5t17.5 -106v-710q0 -63 -17.5 -105.5t-47.5 -67t-67.5 -33.5t-78.5 -9t-79 9t-67.5 33.5t-47 66.5t-17.5 106zM100 1294q0 49 25.5 93.5t95.5 44.5q41 0 73 -18.5t54 -18.5q16 0 32.5 12 t18.5 35h70q0 -49 -25.5 -93t-95.5 -44q-41 0 -72.5 18t-54.5 18q-16 0 -32.5 -12t-18.5 -35h-70zM201 203q0 -61 22.5 -87t61.5 -26t61.5 25.5t22.5 87.5v710q0 61 -22.5 87t-61.5 26t-61.5 -25.5t-22.5 -87.5v-710z" />
<glyph unicode="&#xf6;" d="M74 203v710q0 63 17.5 105.5t47 67t67.5 33.5t79 9t78.5 -9t67.5 -33.5t47.5 -66.5t17.5 -106v-710q0 -63 -17.5 -105.5t-47.5 -67t-67.5 -33.5t-78.5 -9t-79 9t-67.5 33.5t-47 66.5t-17.5 106zM119 1286v156h127v-156h-127zM201 203q0 -61 22.5 -87t61.5 -26t61.5 25.5 t22.5 87.5v710q0 61 -22.5 87t-61.5 26t-61.5 -25.5t-22.5 -87.5v-710zM323 1286v156h127v-156h-127z" />
<glyph unicode="&#xf7;" horiz-adv-x="1228" d="M96 467v102h1037v-102h-1037zM500 94q0 47 33.5 81t80.5 34t81 -34t34 -81t-33.5 -80.5t-81.5 -33.5q-47 0 -80.5 33.5t-33.5 80.5zM500 942q0 47 33.5 81t80.5 34t81 -34t34 -81t-33.5 -81t-81.5 -34q-47 0 -80.5 34t-33.5 81z" />
<glyph unicode="&#xf8;" d="M47 -51l49 139q-23 49 -22 115v710q0 63 17.5 105.5t47 67t67.5 33.5t79 9q43 0 82 -10t67 -37l41 111l47 -18l-51 -142q25 -45 25 -119v-710q0 -63 -17.5 -105.5t-47.5 -67t-67.5 -33.5t-78.5 -9q-43 0 -83 10t-69 39l-39 -107zM201 203q0 -61 22.5 -87t61.5 -26 t61.5 25.5t22.5 87.5v530h-4l-164 -493v-37zM201 397h4l164 494v22q0 61 -22.5 87t-61.5 26t-61.5 -25.5t-22.5 -87.5v-516z" />
<glyph unicode="&#xf9;" d="M74 156v960h127v-911q0 -45 18.5 -74t61.5 -29q45 0 66.5 34t21.5 69v911h127v-1116h-119v76h-4q-23 -35 -61 -61.5t-87 -26.5q-78 0 -114.5 50t-36.5 118zM133 1479h143l90 -222h-102z" />
<glyph unicode="&#xfa;" d="M74 156v960h127v-911q0 -45 18.5 -74t61.5 -29q45 0 66.5 34t21.5 69v911h127v-1116h-119v76h-4q-23 -35 -61 -61.5t-87 -26.5q-78 0 -114.5 50t-36.5 118zM203 1257l90 222h143l-131 -222h-102z" />
<glyph unicode="&#xfb;" d="M74 156v960h127v-911q0 -45 18.5 -74t61.5 -29q45 0 66.5 34t21.5 69v911h127v-1116h-119v76h-4q-23 -35 -61 -61.5t-87 -26.5q-78 0 -114.5 50t-36.5 118zM106 1257l90 222h177l90 -222h-119l-59 148l-60 -148h-119z" />
<glyph unicode="&#xfc;" d="M74 156v960h127v-911q0 -45 18.5 -74t61.5 -29q45 0 66.5 34t21.5 69v911h127v-1116h-119v76h-4q-23 -35 -61 -61.5t-87 -26.5q-78 0 -114.5 50t-36.5 118zM119 1286v156h127v-156h-127zM323 1286v156h127v-156h-127z" />
<glyph unicode="&#xfd;" horiz-adv-x="530" d="M37 1116h127l90 -751h4l109 751h127l-213 -1337h-127l45 221zM185 1257l90 222h143l-131 -222h-102z" />
<glyph unicode="&#xfe;" d="M74 -221v1700h119v-432h4q45 82 135 81q31 0 60.5 -10t52 -34.5t37 -66.5t14.5 -106v-749q0 -76 -40 -125t-106 -49q-49 0 -87 21.5t-58 60.5h-4v-291h-127zM201 225q0 -53 25.5 -88t66.5 -35q39 0 57.5 34t18.5 95v676q0 119 -74 119q-39 0 -66.5 -27.5t-27.5 -95.5 v-678z" />
<glyph unicode="&#xff;" horiz-adv-x="530" d="M37 1116h127l90 -751h4l109 751h127l-213 -1337h-127l45 221zM101 1286v156h127v-156h-127zM305 1286v156h127v-156h-127z" />
<glyph unicode="&#x152;" horiz-adv-x="833" d="M104 201v1077q0 92 59.5 146.5t184.5 54.5h432v-115h-211v-539h201v-114h-201v-596h217v-115h-438q-125 0 -184.5 54.5t-59.5 146.5zM240 231q0 -74 30.5 -95t87.5 -21h76v1249h-76q-57 0 -87.5 -21.5t-30.5 -95.5v-1016z" />
<glyph unicode="&#x153;" horiz-adv-x="833" d="M78 203v710q0 63 15.5 105.5t41 67t62 33.5t79.5 9q51 0 87 -21.5t59 -57.5q23 29 61.5 54t98.5 25q35 0 65.5 -8t55 -30.5t39 -65.5t14.5 -111v-387h-275v-323q0 -61 17.5 -87t56.5 -26q31 0 52.5 25.5t21.5 87.5v157h127v-157q0 -63 -17.5 -105.5t-46 -67t-64.5 -33.5 t-73 -9q-49 0 -80 21.5t-53 60.5h-4q-16 -37 -54 -59.5t-96 -22.5q-98 0 -144 51t-46 164zM205 197q0 -53 20.5 -80t55.5 -27q33 0 53 23.5t20 58.5v772q0 35 -20.5 58.5t-52.5 23.5q-35 0 -55.5 -24.5t-20.5 -69.5v-735zM481 641h148v272q0 61 -17.5 87t-56.5 26 t-56.5 -25.5t-17.5 -87.5v-272z" />
<glyph unicode="&#x178;" d="M18 1479h136l129 -672h4l129 672h135l-199 -836v-643h-135v643zM119 1571v156h127v-156h-127zM323 1571v156h127v-156h-127z" />
<glyph unicode="&#x2c6;" horiz-adv-x="303" d="M-27 1257l90 222h177l90 -222h-119l-59 148l-60 -148h-119z" />
<glyph unicode="&#x2dc;" horiz-adv-x="303" d="M-33 1294q0 49 25.5 93.5t95.5 44.5q41 0 73 -18.5t54 -18.5q16 0 32.5 12t18.5 35h70q0 -49 -25.5 -93t-95.5 -44q-41 0 -72.5 18t-54.5 18q-16 0 -32.5 -12t-18.5 -35h-70z" />
<glyph unicode="&#x2000;" horiz-adv-x="896" />
<glyph unicode="&#x2001;" horiz-adv-x="1792" />
<glyph unicode="&#x2002;" horiz-adv-x="896" />
<glyph unicode="&#x2003;" horiz-adv-x="1792" />
<glyph unicode="&#x2004;" horiz-adv-x="597" />
<glyph unicode="&#x2005;" horiz-adv-x="448" />
<glyph unicode="&#x2006;" horiz-adv-x="298" />
<glyph unicode="&#x2007;" horiz-adv-x="298" />
<glyph unicode="&#x2008;" horiz-adv-x="224" />
<glyph unicode="&#x2009;" horiz-adv-x="358" />
<glyph unicode="&#x200a;" horiz-adv-x="99" />
<glyph unicode="&#x2010;" horiz-adv-x="339" d="M47 557v115h246v-115h-246z" />
<glyph unicode="&#x2011;" horiz-adv-x="339" d="M47 557v115h246v-115h-246z" />
<glyph unicode="&#x2012;" horiz-adv-x="339" d="M47 557v115h246v-115h-246z" />
<glyph unicode="&#x2013;" horiz-adv-x="1024" d="M0 563v103h1024v-103h-1024z" />
<glyph unicode="&#x2014;" horiz-adv-x="2048" d="M0 563v103h2048v-103h-2048z" />
<glyph unicode="&#x2018;" horiz-adv-x="344" d="M59 1143l115 336h111l-74 -336h-152z" />
<glyph unicode="&#x2019;" horiz-adv-x="344" d="M59 1143l74 336h152l-115 -336h-111z" />
<glyph unicode="&#x201a;" horiz-adv-x="344" d="M59 -180l74 336h152l-115 -336h-111z" />
<glyph unicode="&#x201c;" d="M49 1143l115 336h110l-73 -336h-152zM295 1143l115 336h110l-74 -336h-151z" />
<glyph unicode="&#x201d;" d="M49 1143l74 336h151l-114 -336h-111zM295 1143l74 336h151l-114 -336h-111z" />
<glyph unicode="&#x201e;" d="M49 -180l74 336h151l-114 -336h-111zM295 -180l74 336h151l-114 -336h-111z" />
<glyph unicode="&#x2022;" horiz-adv-x="1024" d="M143 739q0 76 29 143.5t79 118t117.5 79t143.5 28.5t143.5 -28.5t117.5 -79t79 -118t29 -143.5t-29 -143.5t-79 -117.5t-117.5 -78.5t-143.5 -28.5t-143.5 28.5t-117.5 78.5t-79 117.5t-29 143.5z" />
<glyph unicode="&#x2026;" horiz-adv-x="2048" d="M274 0v156h136v-156h-136zM956 0v156h136v-156h-136zM1638 0v156h136v-156h-136z" />
<glyph unicode="&#x202f;" horiz-adv-x="358" />
<glyph unicode="&#x2039;" horiz-adv-x="342" d="M57 618l117 431h111l-101 -431l101 -438h-103z" />
<glyph unicode="&#x203a;" horiz-adv-x="342" d="M57 180l101 430l-101 439h103l125 -439l-117 -430h-111z" />
<glyph unicode="&#x205f;" horiz-adv-x="448" />
<glyph unicode="&#x2122;" horiz-adv-x="2027" d="M131 1389v90h655v-90h-276v-754h-102v754h-277zM893 635v844h174l268 -688l269 688h174v-844h-103v754h-4l-305 -754h-61l-306 754h-4v-754h-102z" />
<glyph unicode="&#xe000;" horiz-adv-x="1116" d="M0 0v1116h1116v-1116h-1116z" />
<glyph unicode="&#xfb01;" horiz-adv-x="645" d="M31 1014v102h63v205q0 78 32 124t128 46h57v-102h-26q-29 0 -46.5 -17.5t-17.5 -66.5v-189h90v-102h-90v-1014h-127v1014h-63zM426 1323v156h135v-156h-135zM430 0v1116h127v-1116h-127z" />
<glyph unicode="&#xfb02;" horiz-adv-x="645" d="M31 1014v102h63v205q0 78 32 124t128 46h57v-102h-26q-29 0 -46.5 -17.5t-17.5 -66.5v-189h90v-102h-90v-1014h-127v1014h-63zM430 0v1479h127v-1479h-127z" />
</font>
</defs>
</svg>
